<!DOCTYPE svg PUBLIC "-//W3C//DTD SVG 20010904//EN" "http://www.w3.org/TR/2001/REC-SVG-20010904/DTD/svg10.dtd">
<svg version="1.0" xmlns="http://www.w3.org/2000/svg" width="842px" height="595px" viewBox="0 0 8420 5950" preserveAspectRatio="xMidYMid meet">
<g id="layer101" fill="#000000" stroke="none">
 <path d="M0 2975 l0 -2975 4210 0 4210 0 0 2975 0 2975 -4210 0 -4210 0 0 -2975z"/>
 </g>
<g id="layer102" fill="#ed1c24" stroke="none">
 <path d="M0 2975 l0 -2975 4210 0 4210 0 0 2975 0 2975 -4210 0 -4210 0 0 -2975z m4319 424 c105 -24 224 -114 281 -214 154 -270 -8 -610 -319 -666 -317 -56 -596 260 -503 567 72 236 299 367 541 313z"/>
 </g>
<g id="layer103" fill="#ffffff" stroke="none">
 <path d="M0 2975 l0 -2975 4210 0 4210 0 0 2975 0 2975 -4210 0 -4210 0 0 -2975z m3452 2122 c217 -73 435 -207 674 -416 45 -39 85 -71 89 -71 4 0 37 26 74 58 301 264 602 429 846 463 264 37 459 -112 534 -406 29 -116 44 -291 37 -425 -7 -113 -39 -361 -55 -430 -24 -97 -32 -85 77 -121 600 -198 976 -541 923 -842 -38 -216 -231 -412 -576 -585 -109 -54 -348 -150 -419 -168 -25 -6 -28 -10 -23 -38 3 -17 15 -83 26 -146 41 -234 52 -452 31 -617 -50 -401 -244 -595 -560 -561 -223 23 -546 200 -843 461 l-77 68 -43 -36 c-316 -272 -562 -418 -799 -475 -241 -58 -436 17 -543 208 -40 71 -82 206 -95 309 -20 146 -8 446 24 623 14 80 29 157 32 171 5 23 2 27 -23 33 -143 36 -476 188 -623 285 -267 176 -404 393 -369 586 49 273 371 530 898 715 l123 43 -6 36 c-3 20 -15 87 -26 149 -84 477 -32 854 143 1040 97 102 183 134 342 128 82 -3 120 -10 207 -39z"/>
 <path d="M3142 4921 c-174 -45 -251 -390 -187 -836 15 -106 40 -233 47 -240 2 -3 40 4 84 14 106 26 282 57 429 76 139 18 113 -1 272 201 56 71 140 171 187 223 100 110 105 89 -44 213 -182 153 -396 281 -545 327 -78 24 -193 35 -243 22z"/>
 <path d="M5072 4904 c-127 -34 -274 -109 -429 -220 -97 -70 -272 -216 -273 -227 0 -5 48 -64 108 -131 59 -67 151 -179 205 -249 93 -120 100 -126 140 -132 249 -33 321 -46 578 -101 25 -6 25 -5 47 113 36 195 45 305 39 477 -8 271 -70 434 -180 475 -40 15 -172 12 -235 -5z"/>
 <path d="M4210 4329 c0 -12 -45 -71 -108 -142 -112 -128 -172 -201 -172 -211 0 -9 61 5 135 32 62 23 90 27 249 31 l179 6 -74 91 c-96 117 -185 214 -198 214 -6 0 -11 -9 -11 -21z"/>
 <path d="M3906 3760 c-82 -5 -150 -10 -151 -12 -106 -137 -445 -731 -445 -782 0 -40 201 -410 349 -641 l89 -140 54 -7 c29 -3 136 -10 238 -14 165 -6 204 -4 344 16 134 19 168 21 219 12 71 -13 59 -24 175 158 145 229 332 575 332 616 0 40 -222 442 -372 675 l-68 106 -78 7 c-136 11 -532 15 -686 6z m413 -361 c105 -24 224 -114 281 -214 154 -270 -8 -610 -319 -666 -317 -56 -596 260 -503 567 72 236 299 367 541 313z"/>
 <path d="M3395 3703 c-11 -2 -92 -18 -180 -35 -88 -16 -161 -31 -163 -33 -3 -2 95 -298 120 -362 11 -29 38 -47 38 -25 0 12 127 238 196 349 35 55 64 104 64 107 0 7 -43 6 -75 -1z"/>
 <path d="M4950 3707 c0 -4 28 -53 63 -109 35 -57 96 -163 136 -236 40 -74 77 -130 82 -125 22 22 142 384 131 395 -16 16 -412 87 -412 75z"/>
 <path d="M2735 3541 c-383 -135 -670 -326 -740 -494 -71 -170 91 -362 460 -543 124 -60 383 -162 390 -152 1 2 18 57 39 123 21 66 71 204 112 306 l74 186 -59 144 c-32 79 -82 215 -111 302 -39 116 -57 157 -69 157 -9 0 -52 -13 -96 -29z"/>
 <path d="M5517 3398 c-32 -95 -83 -232 -113 -305 l-55 -133 56 -134 c30 -74 81 -210 111 -303 31 -92 57 -169 58 -170 1 -2 38 9 81 23 282 92 534 230 671 368 154 156 155 284 2 437 -100 101 -266 206 -448 284 -93 40 -275 105 -293 105 -7 0 -38 -78 -70 -172z"/>
 <path d="M3172 2658 c-35 -90 -123 -360 -119 -364 5 -5 311 -67 380 -77 28 -5 37 -3 34 6 -3 7 -42 76 -88 153 -46 77 -104 179 -129 227 -25 48 -50 87 -55 87 -6 0 -16 -15 -23 -32z"/>
 <path d="M5205 2664 c-9 -16 -43 -77 -75 -137 -33 -59 -87 -151 -120 -203 -33 -53 -60 -100 -60 -104 0 -11 32 -6 225 31 185 36 185 36 185 59 0 25 -115 359 -128 372 -8 8 -16 3 -27 -18z"/>
 <path d="M2995 2077 c-12 -34 -45 -236 -56 -336 -16 -155 -7 -383 19 -483 33 -124 80 -201 144 -234 101 -53 316 -4 525 120 152 90 423 301 423 330 0 7 -14 25 -31 42 -41 39 -261 301 -326 389 l-51 70 -139 18 c-135 18 -405 67 -471 86 -24 7 -34 7 -37 -2z"/>
 <path d="M5265 2053 c-60 -13 -194 -37 -298 -52 l-188 -27 -101 -130 c-55 -71 -148 -182 -206 -248 -84 -95 -103 -122 -95 -135 16 -26 171 -157 268 -226 190 -136 385 -223 515 -232 58 -4 69 -2 99 21 27 20 37 23 52 13 15 -10 23 -7 50 18 128 122 164 497 86 905 -26 136 -15 131 -182 93z"/>
 <path d="M3940 2002 c0 -13 118 -159 197 -242 50 -53 63 -74 63 -99 0 -17 4 -31 9 -31 17 0 271 290 271 310 0 5 -89 10 -197 12 -200 4 -220 7 -325 53 -11 4 -18 3 -18 -3z"/>
 </g>

</svg>