<?xml version="1.0" standalone="no"?>
<!DOCTYPE svg PUBLIC "-//W3C//DTD SVG 20010904//EN"
 "http://www.w3.org/TR/2001/REC-SVG-20010904/DTD/svg10.dtd">
<svg version="1.0" xmlns="http://www.w3.org/2000/svg"
 width="842.000000pt" height="595.000000pt" viewBox="0 0 842.000000 595.000000"
 preserveAspectRatio="xMidYMid meet">

<g transform="translate(0.000000,595.000000) scale(0.100000,-0.100000)"
fill="#000000" stroke="none">
<path d="M5130 5158 c-222 -23 -546 -200 -843 -461 l-77 -68 -43 36 c-316 272
-562 418 -799 475 -241 58 -436 -17 -543 -208 -40 -71 -82 -206 -95 -309 -20
-146 -8 -446 24 -623 14 -80 29 -157 32 -171 5 -23 2 -27 -23 -33 -143 -36
-476 -188 -623 -285 -267 -176 -404 -393 -369 -586 49 -273 371 -530 898 -715
l123 -43 -6 -36 c-3 -20 -15 -87 -26 -149 -88 -498 -28 -880 166 -1061 92 -86
146 -105 299 -105 112 0 127 2 227 36 220 76 436 209 674 417 45 39 85 71 89
71 4 0 37 -26 74 -58 301 -264 602 -429 846 -463 264 -37 459 112 534 406 29
116 44 291 37 425 -7 113 -39 361 -55 430 -24 97 -32 85 77 121 600 198 976
541 923 842 -38 216 -231 412 -576 585 -109 54 -348 150 -419 168 -25 6 -28
10 -23 38 3 17 15 83 26 146 41 234 52 452 31 617 -50 401 -243 594 -560 561z
m-1820 -222 c150 -32 319 -117 501 -253 123 -91 239 -192 239 -207 0 -7 -14
-25 -31 -42 -41 -39 -261 -301 -326 -389 l-51 -70 -139 -18 c-107 -14 -350
-58 -494 -89 -9 -2 -20 33 -35 112 -67 342 -56 669 30 837 28 57 84 110 124
119 15 3 32 7 37 9 23 8 84 4 145 -9z m1949 -10 c27 -20 37 -23 52 -13 15 10
23 7 50 -18 128 -122 163 -483 88 -895 -12 -63 -25 -119 -29 -124 -5 -4 -88 8
-187 27 -98 20 -240 44 -315 54 l-138 18 -114 145 c-62 80 -157 193 -210 252
l-96 108 46 42 c266 245 589 425 770 427 38 1 58 -5 83 -23z m-849 -823 l81
-98 -203 -6 c-204 -6 -246 -12 -320 -50 -21 -11 -38 -16 -38 -12 0 12 134 176
206 253 56 59 64 72 64 106 l1 39 64 -67 c36 -37 101 -112 145 -165z m-16
-335 c124 -18 158 -19 208 -10 72 13 60 24 176 -158 145 -229 332 -575 332
-616 0 -40 -222 -442 -372 -676 l-69 -106 -107 -8 c-134 -11 -585 -11 -712 0
l-95 8 -77 116 c-42 64 -102 160 -134 212 -76 127 -234 432 -234 454 0 21 91
202 183 366 65 115 238 394 256 413 9 9 224 23 386 26 68 0 167 -7 259 -21z
m-924 -35 c0 -3 -35 -65 -79 -137 -43 -72 -104 -180 -136 -239 -32 -60 -61
-105 -65 -100 -17 17 -145 391 -137 399 5 5 182 43 297 64 127 22 120 21 120
13z m1700 -34 c91 -17 173 -34 182 -38 16 -6 11 -25 -41 -183 -33 -97 -66
-188 -74 -203 l-14 -27 -43 83 c-49 95 -159 283 -202 346 -15 23 -28 46 -28
52 0 12 -1 12 220 -30z m-2287 -222 c21 -67 72 -206 113 -308 l74 -186 -57
-139 c-31 -76 -82 -214 -113 -306 l-55 -166 -95 32 c-386 132 -684 328 -755
499 -70 168 89 359 450 538 108 54 360 155 395 158 3 1 22 -54 43 -122z m2771
97 c283 -92 535 -230 672 -368 156 -157 156 -285 -2 -441 -110 -109 -283 -215
-489 -298 -122 -50 -253 -93 -258 -86 -2 2 -30 81 -61 174 -31 94 -82 230
-112 303 l-55 132 56 135 c31 75 82 212 113 305 31 94 56 170 57 170 0 0 36
-12 79 -26z m-2377 -999 c36 -66 94 -166 129 -222 35 -55 64 -104 64 -108 0
-4 -24 -4 -52 -1 -57 8 -361 67 -366 71 -4 3 101 316 124 370 13 31 19 37 26
25 5 -8 38 -69 75 -135z m1999 30 c57 -156 94 -279 86 -287 -16 -16 -412 -87
-412 -75 0 4 28 53 63 109 35 57 96 163 136 236 40 74 77 130 82 125 4 -4 25
-53 45 -108z m-2166 -520 c80 -20 267 -52 405 -70 139 -18 113 1 272 -201 56
-71 140 -171 187 -223 100 -110 105 -89 -44 -213 -184 -155 -396 -282 -551
-329 -52 -17 -99 -23 -160 -24 -77 0 -90 3 -127 28 -68 44 -115 137 -143 282
-32 163 -7 569 47 758 6 18 3 18 114 -8z m2338 -92 c36 -195 45 -305 39 -477
-7 -223 -47 -366 -124 -438 -39 -38 -73 -48 -157 -48 -156 0 -341 78 -563 236
-97 70 -272 216 -273 227 0 5 48 64 108 131 59 67 151 179 205 249 93 120 100
126 140 132 247 33 552 87 566 101 2 2 12 4 21 4 13 0 21 -23 38 -117z m-1383
-51 c62 -23 90 -27 249 -31 l179 -6 -74 -91 c-41 -50 -104 -124 -141 -164
l-68 -74 0 32 c0 28 -18 53 -108 155 -112 128 -172 201 -172 211 0 9 61 -5
135 -32z"/>
<path d="M4120 3429 c-72 -14 -171 -68 -228 -126 -218 -218 -156 -582 123
-719 169 -83 363 -53 500 77 188 177 193 461 12 641 -110 110 -258 156 -407
127z"/>
</g>
</svg>
